<svg width="18" height="20" viewBox="0 0 18 20" fill="none" xmlns="http://www.w3.org/2000/svg">
<path d="M15.2076 1.99203H14.1534V1.2917C14.1534 1.14583 14.0955 1.00594 13.9923 0.902791C13.8892 0.799646 13.7493 0.741699 13.6034 0.741699C13.4576 0.741699 13.3177 0.799646 13.2145 0.902791C13.1114 1.00594 13.0534 1.14583 13.0534 1.2917V1.99203H4.94643V1.2917C4.94643 1.14583 4.88849 1.00594 4.78534 0.902791C4.6822 0.799646 4.5423 0.741699 4.39643 0.741699C4.25056 0.741699 4.11067 0.799646 4.00752 0.902791C3.90438 1.00594 3.84643 1.14583 3.84643 1.2917V1.99203H2.79135C2.10809 1.993 1.45311 2.26492 0.97006 2.74814C0.48701 3.23136 0.215327 3.88644 0.2146 4.5697V16.6816C0.21557 17.3647 0.487359 18.0196 0.970384 18.5026C1.45341 18.9856 2.10825 19.2574 2.79135 19.2584H15.2076C15.8911 19.2579 16.5464 18.9862 17.0298 18.5028C17.5131 18.0195 17.7848 17.3642 17.7853 16.6807V4.5697C17.7848 3.88621 17.5131 3.23085 17.0298 2.74755C16.5464 2.26425 15.8911 1.99252 15.2076 1.99203ZM16.6853 16.6807C16.6848 17.0725 16.5289 17.448 16.2519 17.725C15.9749 18.002 15.5994 18.1579 15.2076 18.1584H2.79135C2.39984 18.1579 2.02451 18.0021 1.74767 17.7253C1.47083 17.4485 1.31508 17.0731 1.3146 16.6816V7.31237H16.6862L16.6853 16.6807ZM16.6853 6.21237H1.3146V4.5697C1.31484 4.17803 1.47048 3.80246 1.74734 3.52542C2.02421 3.24839 2.39968 3.09252 2.79135 3.09203H3.84643V3.72453C3.84643 3.8704 3.90438 4.0103 4.00752 4.11344C4.11067 4.21659 4.25056 4.27453 4.39643 4.27453C4.5423 4.27453 4.6822 4.21659 4.78534 4.11344C4.88849 4.0103 4.94643 3.8704 4.94643 3.72453V3.09203H13.0544V3.72453C13.0544 3.8704 13.1123 4.0103 13.2154 4.11344C13.3186 4.21659 13.4585 4.27453 13.6044 4.27453C13.7502 4.27453 13.8901 4.21659 13.9933 4.11344C14.0964 4.0103 14.1543 3.8704 14.1543 3.72453V3.09203H15.2085C15.6001 3.09252 15.9755 3.24823 16.2525 3.52504C16.5295 3.80186 16.6855 4.17719 16.6862 4.56878L16.6853 6.21237ZM3.33035 10.6609C3.33035 10.4343 3.39755 10.2128 3.52346 10.0244C3.64936 9.83593 3.82832 9.68906 4.03769 9.60234C4.24707 9.51561 4.47745 9.49292 4.69972 9.53713C4.92199 9.58135 5.12616 9.69048 5.28641 9.85072C5.44666 10.011 5.55579 10.2151 5.6 10.4374C5.64421 10.6597 5.62152 10.8901 5.5348 11.0994C5.44807 11.3088 5.30121 11.4878 5.11277 11.6137C4.92434 11.7396 4.70281 11.8068 4.47618 11.8068C4.17229 11.8068 3.88084 11.6861 3.66596 11.4712C3.45107 11.2563 3.33035 10.9648 3.33035 10.6609ZM7.8541 10.6609C7.8541 10.4343 7.9213 10.2128 8.04721 10.0244C8.17311 9.83593 8.35207 9.68906 8.56144 9.60234C8.77082 9.51561 9.00121 9.49292 9.22348 9.53713C9.44575 9.58135 9.64991 9.69048 9.81016 9.85072C9.97041 10.011 10.0795 10.2151 10.1238 10.4374C10.168 10.6597 10.1453 10.8901 10.0585 11.0994C9.97182 11.3088 9.82496 11.4878 9.63653 11.6137C9.44809 11.7396 9.22656 11.8068 8.99993 11.8068C8.69604 11.8068 8.40459 11.6861 8.18971 11.4712C7.97482 11.2563 7.8541 10.9648 7.8541 10.6609ZM12.3779 10.6609C12.3779 10.4343 12.4451 10.2128 12.571 10.0244C12.6969 9.83593 12.8758 9.68906 13.0852 9.60234C13.2946 9.51561 13.525 9.49292 13.7472 9.53713C13.9695 9.58135 14.1737 9.69048 14.3339 9.85072C14.4942 10.011 14.6033 10.2151 14.6475 10.4374C14.6917 10.6597 14.669 10.8901 14.5823 11.0994C14.4956 11.3088 14.3487 11.4878 14.1603 11.6137C13.9718 11.7396 13.7503 11.8068 13.5237 11.8068C13.2198 11.8068 12.9283 11.6861 12.7135 11.4712C12.4986 11.2563 12.3779 10.9648 12.3779 10.6609ZM3.33035 14.4C3.33035 14.1734 3.39755 13.9519 3.52346 13.7634C3.64936 13.575 3.82832 13.4281 4.03769 13.3414C4.24707 13.2547 4.47745 13.232 4.69972 13.2762C4.92199 13.3204 5.12616 13.4296 5.28641 13.5898C5.44666 13.7501 5.55579 13.9542 5.6 14.1765C5.64421 14.3988 5.62152 14.6292 5.5348 14.8385C5.44807 15.0479 5.30121 15.2269 5.11277 15.3528C4.92434 15.4787 4.70281 15.5459 4.47618 15.5459C4.17229 15.5459 3.88084 15.4251 3.66596 15.2103C3.45107 14.9954 3.33035 14.7039 3.33035 14.4ZM7.8541 14.4C7.85374 14.1733 7.92063 13.9516 8.04632 13.7629C8.172 13.5743 8.35083 13.4271 8.56017 13.3401C8.76951 13.2531 8.99996 13.2302 9.22235 13.2742C9.44474 13.3182 9.64908 13.4272 9.80951 13.5873C9.96994 13.7475 10.0793 13.9517 10.1236 14.174C10.168 14.3963 10.1454 14.6268 10.0587 14.8363C9.97205 15.0457 9.82519 15.2248 9.63672 15.3508C9.44825 15.4768 9.22664 15.544 8.99993 15.544C8.69636 15.544 8.40519 15.4236 8.19035 15.2091C7.97552 14.9946 7.85459 14.7036 7.8541 14.4ZM12.3779 14.4C12.3779 14.1734 12.4451 13.9519 12.571 13.7634C12.6969 13.575 12.8758 13.4281 13.0852 13.3414C13.2946 13.2547 13.525 13.232 13.7472 13.2762C13.9695 13.3204 14.1737 13.4296 14.3339 13.5898C14.4942 13.7501 14.6033 13.9542 14.6475 14.1765C14.6917 14.3988 14.669 14.6292 14.5823 14.8385C14.4956 15.0479 14.3487 15.2269 14.1603 15.3528C13.9718 15.4787 13.7503 15.5459 13.5237 15.5459C13.2198 15.5459 12.9283 15.4251 12.7135 15.2103C12.4986 14.9954 12.3779 14.7039 12.3779 14.4Z" fill="#F3A735"/>
</svg>
