<svg width="22" height="20" viewBox="0 0 22 20" fill="none" xmlns="http://www.w3.org/2000/svg">
<path d="M21.9068 18.6002L11.6524 3.39529L13.0045 1.41506C13.1792 1.16574 13.1187 0.822058 12.8693 0.647403C12.62 0.472748 12.2763 0.533273 12.1017 0.782596L10.9982 2.41824L9.89465 0.782596C9.71999 0.533273 9.37632 0.472748 9.12699 0.647403C8.87767 0.822058 8.81714 1.16574 8.9918 1.41506L10.3396 3.41708L0.0851237 18.6002C-0.0763774 18.8544 -0.00127957 19.1913 0.252858 19.3528C0.496808 19.5078 0.819294 19.4456 0.988017 19.2109L2.25729 17.3266V18.9055C2.25729 19.2067 2.50141 19.4507 2.80249 19.4507H19.1851C19.4862 19.4507 19.7303 19.2067 19.7303 18.9055V17.3266L20.9995 19.2109C21.1682 19.4614 21.5079 19.5278 21.7585 19.3592C22.009 19.1905 22.0754 18.8508 21.9068 18.6002ZM8.33311 18.3603L10.9981 13.7413L13.6588 18.3603H8.33311ZM18.6486 18.3603H14.915L11.4692 12.3804C11.3176 12.1203 10.9838 12.0323 10.7236 12.1839C10.6422 12.2313 10.5745 12.299 10.5271 12.3804L7.077 18.3603H3.34769V15.7128L10.9981 4.37233L18.6486 15.7128L18.6486 18.3603Z" fill="#F3A735"/>
</svg>
